<?xml version="1.0" encoding="UTF-8"?>
<svg width="311px" height="122px" viewBox="0 0 311 122" version="1.1" xmlns="http://www.w3.org/2000/svg" xmlns:xlink="http://www.w3.org/1999/xlink">
    <!-- Generator: Sketch 52.5 (67469) - http://www.bohemiancoding.com/sketch -->
    <title>Group 3</title>
    <desc>Created with Sketch.</desc>
    <g id="Page-1" stroke="none" stroke-width="1" fill="none" fill-rule="evenodd">
        <g id="HOME-MOBILE" transform="translate(-19.000000, -1384.000000)">
            <g id="Group-3" transform="translate(20.000000, 1385.000000)">
                <path d="M0,95.0896504 L27.9703341,80.1427729 L54.3342476,82.3229711 C54.3342476,82.3229711 58.0310834,82.6348095 58.0310834,85.9034373 C58.0310834,89.1734007 55.6200736,91.352931 53.6909899,91.352931 C51.7619063,91.352931 39.8661202,92.2871109 39.8661202,92.2871109 L41.7952039,98.5145314 L58.0310834,100.382891 L78.1244409,88.5503915 C78.1244409,88.5503915 81.9826082,86.3708611 84.555639,90.2624981 C87.1272909,94.1554706 84.555639,96.335001 84.555639,96.335001 L58.1917255,112.8384 L23.4695986,105.676132 L4.50073557,120 L308.90625,120" id="Stroke-1" stroke="#003A5D" stroke-width="2" stroke-linecap="round" stroke-linejoin="round"></path>
                <g id="Group-4" transform="translate(25.000000, 0.000000)">
                    <path d="M45.0963224,64 C33.9850299,52.9894903 34.6905842,50.9252732 41.5691448,42.3225339 C53.0326206,28.5589622 51.9742891,11.5267089 51.9742891,11.5267089 L51.9742891,0 L34.338401,0 L30.6621542,0 L13.0256721,0 L13.0256721,11.5267089 C13.0256721,11.5267089 11.9679345,28.5589622 23.4314103,42.3225339 C30.3099709,50.9252732 31.0149313,52.9894903 19.9042327,64" id="Stroke-3" stroke="#003A5D" stroke-width="2" stroke-linecap="round" stroke-linejoin="round"></path>
                    <path d="M52.1613353,7 L64.9659047,7 C64.9659047,7 66.6690861,30.4511995 46,37" id="Stroke-5" stroke="#003A5D" stroke-width="2" stroke-linecap="round" stroke-linejoin="round"></path>
                    <path d="M12.8386647,7 L0.034095251,7 C0.034095251,7 -1.66908611,30.4511995 19,37" id="Stroke-7" stroke="#003A5D" stroke-width="2" stroke-linecap="round" stroke-linejoin="round"></path>
                    <polygon id="Stroke-9" stroke="#003A5D" stroke-width="2" stroke-linecap="round" stroke-linejoin="round" points="16 75 49 75 49 65 16 65"></polygon>
                    <path d="M46,7 L20.6565808,7 C20.1897002,11.183808 19.9732755,14.1939076 20.0073067,16.0302988" id="Path-3" stroke="#003A5D" stroke-width="2" stroke-linecap="round" stroke-linejoin="round"></path>
                    <g id="Group-14" transform="translate(20.000000, 13.000000)">
                        <path d="M11.7487199,12.0506089 L3.78837841,19.8964819 C3.72139523,19.9629935 3.62954709,20 3.53465426,20 L3.52957977,20 C3.4321497,19.9989998 3.34030156,19.9579926 3.27331838,19.8884805 C-1.18867454,15.2151627 -1.07551357,7.99789963 3.53059467,3.45710499 C5.79330665,1.22771485 8.80095274,0 11.9999068,0 C15.1988609,0 18.2070145,1.22771485 20.469219,3.45710499 C25.0758347,7.99689946 25.1884882,15.2151627 20.7264953,19.8884805 C20.660527,19.9579926 20.5681714,19.9989998 20.4707413,20 L20.4651594,20 C20.3702666,20 20.2789259,19.9629935 20.2114353,19.8964819 L12.2510937,12.051609 L12.253631,12.0506089 C12.1135753,11.9130848 11.8862384,11.9130848 11.7461827,12.0506089 L11.7487199,12.0506089 Z" id="Fill-20" fill="#00C4B3"></path>
                        <path d="M17.354314,22.3701805 C17.5881285,22.1961798 17.6432872,21.8553855 17.4787873,21.6087987 C17.3128229,21.3616971 16.9896806,21.3045549 16.7568424,21.4785556 C15.3603014,22.5179267 13.715302,23.0677277 11.9995237,23.0677277 C10.2837453,23.0677277 8.63874593,22.5179267 7.24269302,21.477526 C7.00887856,21.3035253 6.68622437,21.3616971 6.5212363,21.6082839 C6.35624823,21.8543559 6.41189509,22.1951502 6.64522142,22.3691509 C8.21651314,23.5403095 10.0684798,24.1601227 11.9995237,24.1601227 C13.9300793,24.1601227 15.7815579,23.5413391 17.354314,22.3701805 M11.9995237,26 C9.05219236,26 6.24983581,24.8283266 4.10791966,22.7022233 C4.04055767,22.6347851 4.00101911,22.5410924 4.00004284,22.441737 C3.99857845,22.343926 4.0347001,22.2497185 4.10108584,22.1802211 L11.7554585,14.1061765 C11.8906706,13.9646078 12.1088649,13.9646078 12.2435888,14.1061765 L19.8984496,22.1802211 C19.9648353,22.2497185 20.000957,22.343926 19.9999807,22.441737 C19.9985163,22.5410924 19.9594659,22.6347851 19.8911276,22.7022233 C17.7496996,24.8283266 14.9468549,26 11.9995237,26" id="Fill-23" fill="#003A5D"></path>
                    </g>
                </g>
            </g>
        </g>
    </g>
</svg>