<?xml version="1.0" encoding="UTF-8"?>
<svg width="769px" height="245px" viewBox="0 0 769 245" version="1.1" xmlns="http://www.w3.org/2000/svg" xmlns:xlink="http://www.w3.org/1999/xlink">
    <!-- Generator: Sketch 52.5 (67469) - http://www.bohemiancoding.com/sketch -->
    <title>3</title>
    <desc>Created with Sketch.</desc>
    <g id="Page-1" stroke="none" stroke-width="1" fill="none" fill-rule="evenodd">
        <g id="COMO-FUNCIONA" transform="translate(-159.000000, -1899.000000)" stroke-width="3">
            <g id="3" transform="translate(160.000000, 1901.000000)">
                <path d="M0,148.875 L68.2153296,111 L132.508021,116.523361 C132.508021,116.523361 141.526183,117.313114 141.526183,125.598769 C141.526183,133.883196 135.645887,139.406557 130.940919,139.406557 C126.237171,139.406557 97.2250299,141.774589 97.2250299,141.774589 L101.929998,157.554918 L141.526183,162.289753 L190.529863,132.304918 C190.529863,132.304918 199.9398,126.781557 206.211871,136.645491 C212.485162,146.508196 206.211871,152.031557 206.211871,152.031557 L141.917958,193.851639 L57.2370699,175.703279 L10.9758187,212 L10.8627451,241.458647 L568,241.458647" id="Stroke-3" stroke="#003A5D" stroke-linejoin="round"></path>
                <path d="M569,241.458647 L766.041016,241.458647" id="Line-5" stroke="#00C4B3" stroke-linecap="square"></path>
                <g id="Group-6" transform="translate(8.000000, 37.000000)" stroke="#003A5D" stroke-linejoin="round">
                    <g id="Group-5">
                        <path d="M66,33 C66,51.2253832 51.2251116,66 33.0006065,66 C14.7748884,66 0,51.2253832 0,33 C0,14.7746168 14.7748884,0 33.0006065,0 C51.2251116,0 66,14.7746168 66,33 Z" id="Stroke-7"></path>
                        <path d="M66,36 C66,60.1503692 51.2251116,74 33.0006065,74 C14.7748884,74 0,62.0868984 0,36" id="Stroke-9"></path>
                        <path d="M15,60 L15,69" id="Stroke-13"></path>
                        <path d="M25,66 L25,74" id="Stroke-15"></path>
                        <path d="M34,67 L34,75" id="Stroke-17"></path>
                        <path d="M43,66 L43,74" id="Stroke-19"></path>
                        <path d="M53,60 L53,68" id="Stroke-21"></path>
                    </g>
                    <path d="M43.9470575,25.7888883 C43.9470575,25.7888883 44.545169,16.6223232 32.9731707,17.0120864 C21.398741,17.4018496 22.196223,24.8144803 22.196223,24.8144803 C22.196223,24.8144803 20.601259,30.4696116 32.9731707,32.6156858 C45.3438667,34.7617601 43.9531359,40.8078429 43.9531359,40.8078429 C43.9531359,40.8078429 44.9451257,49 32.9731707,49 C21,49 21,39.8322466 21,38.6617687" id="Stroke-11"></path>
                    <path d="M34,13 L34,56" id="Stroke-23"></path>
                </g>
                <g id="Group-8" transform="translate(86.000000, 0.000000)" stroke="#003A5D" stroke-linejoin="round">
                    <path d="M66,33 C66,51.2253832 51.2251116,66 33.0006065,66 C14.7748884,66 0,51.2253832 0,33 C0,14.7746168 14.7748884,0 33.0006065,0 C51.2251116,0 66,14.7746168 66,33 Z" id="Stroke-27"></path>
                    <path d="M66,36 C66,60.1515788 51.2251116,74 33.0006065,74 C14.7748884,74 0,62.0868984 0,36" id="Stroke-29"></path>
                    <path d="M45.9470575,24.7897491 C45.9470575,24.7897491 46.545169,15.6223356 34.9731707,16.0120844 C23.398741,16.4018331 24.196223,23.8141889 24.196223,23.8141889 C24.196223,23.8141889 22.6000433,29.4702988 34.9731707,31.6162934 C47.3438667,33.7610998 45.9531359,39.8081467 45.9531359,39.8081467 C45.9531359,39.8081467 46.9451257,48 34.9731707,48 C23,48 23,38.8325866 23,37.6621521" id="Stroke-31"></path>
                    <path d="M15,60 L15,69" id="Stroke-33"></path>
                    <path d="M25,66 L25,74" id="Stroke-35"></path>
                    <path d="M43,66 L43,74" id="Stroke-37"></path>
                    <path d="M53,60 L53,68" id="Stroke-39"></path>
                    <path d="M35,13 L35,56" id="Stroke-41"></path>
                </g>
                <g id="Group-7" transform="translate(152.000000, 45.000000)" stroke="#003A5D" stroke-linejoin="round">
                    <path d="M66,33.0006065 C66,51.2251116 51.2251116,66 32.9993935,66 C14.7748884,66 0,51.2251116 0,33.0006065 C0,14.7748884 14.7748884,0 32.9993935,0 C51.2251116,0 66,14.7748884 66,33.0006065 Z" id="Stroke-45"></path>
                    <path d="M66,37 C66,61.1515788 51.2251116,75 32.9993935,75 C14.7748884,75 0,63.0868984 0,37" id="Stroke-47"></path>
                    <path d="M42.9482732,25.7888883 C42.9482732,25.7888883 43.5463847,16.6223232 31.9731707,17.0120864 C20.398741,17.4018496 21.1974386,24.8144803 21.1974386,24.8144803 C21.1974386,24.8144803 19.601259,30.4696116 31.9731707,32.6156858 C44.3438667,34.7617601 42.9531359,40.8090312 42.9531359,40.8090312 C42.9531359,40.8090312 43.9451257,49 31.9731707,49 C20,49 20,39.8322466 20,38.662957" id="Stroke-49"></path>
                    <path d="M15,61 L15,70" id="Stroke-51"></path>
                    <path d="M24,66 L24,74" id="Stroke-53"></path>
                    <path d="M43,66 L43,74" id="Stroke-55"></path>
                    <path d="M53,60 L53,68" id="Stroke-57"></path>
                    <path d="M33,13 L33,56" id="Stroke-59"></path>
                </g>
            </g>
        </g>
    </g>
</svg>