<?xml version="1.0" encoding="UTF-8"?>
<svg width="705px" height="227px" viewBox="0 0 705 227" version="1.1" xmlns="http://www.w3.org/2000/svg" xmlns:xlink="http://www.w3.org/1999/xlink">
    <!-- Generator: Sketch 52.5 (67469) - http://www.bohemiancoding.com/sketch -->
    <title>1</title>
    <desc>Created with Sketch.</desc>
    <g id="Page-1" stroke="none" stroke-width="1" fill="none" fill-rule="evenodd">
        <g id="COMO-FUNCIONA" transform="translate(-184.000000, -365.000000)">
            <g id="1" transform="translate(184.000000, 367.000000)">
                <g id="Group-27">
                    <path d="M2.8875868,174.506928 L56.7175518,144.917405 L107.453055,149.232624 C107.453055,149.232624 114.568488,149.848673 114.568488,156.32198 C114.568488,162.794328 109.928239,167.109547 106.215463,167.109547 C102.503649,167.109547 79.6106004,168.959612 79.6106004,168.959612 L83.322414,181.28826 L114.568488,184.98743 L153.239152,161.562231 C153.239152,161.562231 160.663742,157.247013 165.613148,164.952418 C170.563517,172.657822 165.613148,176.973041 165.613148,176.973041 L114.877645,209.645685 L48.0544062,195.466972 L11.5497693,223.825357" id="Stroke-5" stroke="#003A5D" stroke-width="3" stroke-linejoin="round"></path>
                    <polyline id="Stroke-7" stroke="#003A5D" stroke-width="3" stroke-linejoin="round" points="14.6433647 134.390268 14.6433647 0.00148214212 89.5095083 0.00148214212 89.5095083 36.9893446 89.5095083 134.390268"></polyline>
                    <polyline id="Stroke-9" stroke="#003A5D" stroke-width="3" stroke-linejoin="round" points="89.5098936 38.2221134 150.764449 38.2221134 150.764449 134.38998"></polyline>
                    <polyline id="Stroke-11" stroke="#003A5D" stroke-width="3" stroke-linejoin="round" points="41.2487083 134.390268 41.2487083 99.8685188 62.9041647 99.8685188 62.9041647 134.390268"></polyline>
                    <polygon id="Fill-13" fill="#003A5D" points="38.5676117 30.6192873 45.5799922 30.6192873 45.5799922 12.1253561 38.5676117 12.1253561"></polygon>
                    <polygon id="Fill-15" fill="#003A5D" points="60.6362408 30.6192873 67.6486214 30.6192873 67.6486214 12.1253561 60.6362408 12.1253561"></polygon>
                    <polygon id="Fill-16" fill="#003A5D" points="38.5676117 57.3329568 45.5799922 57.3329568 45.5799922 38.8390256 38.5676117 38.8390256"></polygon>
                    <polygon id="Fill-17" fill="#003A5D" points="60.6362408 57.3329568 67.6486214 57.3329568 67.6486214 38.8390256 60.6362408 38.8390256"></polygon>
                    <polygon id="Fill-18" fill="#003A5D" points="38.5676117 84.0466262 45.5799922 84.0466262 45.5799922 65.552695 38.5676117 65.552695"></polygon>
                    <polygon id="Fill-19" fill="#003A5D" points="60.6362408 84.0466262 67.6486214 84.0466262 67.6486214 65.552695 60.6362408 65.552695"></polygon>
                    <polygon id="Fill-20" fill="#003A5D" points="107.453825 68.8402064 114.466206 68.8402064 114.466206 50.3462752 107.453825 50.3462752"></polygon>
                    <polygon id="Fill-21" fill="#003A5D" points="129.522454 68.8402064 136.534835 68.8402064 136.534835 50.3462752 129.522454 50.3462752"></polygon>
                    <polygon id="Fill-22" fill="#003A5D" points="107.453825 95.5538759 114.466206 95.5538759 114.466206 77.0599447 107.453825 77.0599447"></polygon>
                    <polygon id="Fill-23" fill="#003A5D" points="129.522454 95.5538759 136.534835 95.5538759 136.534835 77.0599447 129.522454 77.0599447"></polygon>
                    <polygon id="Fill-24" fill="#003A5D" points="107.453825 122.267545 114.466206 122.267545 114.466206 103.773614 107.453825 103.773614"></polygon>
                    <polygon id="Fill-25" fill="#003A5D" points="129.522454 122.267545 136.534835 122.267545 136.534835 103.773614 129.522454 103.773614"></polygon>
                    <path d="M0.000192621359,134.390268 L544,134.390268" id="Stroke-26" stroke="#003A5D" stroke-width="3" stroke-linejoin="round"></path>
                    <path d="M545.396484,134.390268 L703,134.390268" id="Line" stroke="#FFFFFF" stroke-width="3" stroke-linecap="square"></path>
                </g>
            </g>
        </g>
    </g>
</svg>