<?xml version="1.0" encoding="UTF-8"?>
<svg width="653px" height="265px" viewBox="0 0 653 265" version="1.1" xmlns="http://www.w3.org/2000/svg" xmlns:xlink="http://www.w3.org/1999/xlink">
    <!-- Generator: Sketch 52.5 (67469) - http://www.bohemiancoding.com/sketch -->
    <title>Group 25</title>
    <desc>Created with Sketch.</desc>
    <g id="Page-1" stroke="none" stroke-width="1" fill="none" fill-rule="evenodd">
        <g id="COMO-FUNCIONA" transform="translate(-198.000000, -1270.000000)" stroke-width="3">
            <g id="Group-25" transform="translate(200.000000, 1272.000000)">
                <g id="Group-24">
                    <path d="M146.651167,211.477824 C146.651167,211.477824 163.53413,212.153064 162.85987,164.810784 C162.183574,117.468504 135.844685,118.821024 132.469315,118.821024 L89.9217222,118.821024 C89.9217222,118.821024 71.0139444,118.145784 71.0139444,137.758344 C71.0139444,157.372944 90.5980185,157.372944 90.5980185,157.372944 L120.312278,157.372944 C120.312278,157.372944 99.3776481,165.488064 99.3776481,178.338024 C99.3776481,191.187984 99.3776481,204.715224 102.755056,211.477824 L35.2211667,211.477824 C35.2211667,211.477824 24.7528333,210.800544 24.7528333,200.994264 L24.7528333,10.609224 C24.7528333,10.609224 24.076537,0.294984 35.0520926,0.294984 L129.768204,0.294984 C129.768204,0.294984 139.307648,0.974304 139.307648,9.848304 L139.307648,119.498304" id="Stroke-6" stroke="#003A5D" stroke-linejoin="round"></path>
                    <path d="M42.6488148,211.477824 L58.1812222,229.060584 C58.1812222,229.060584 61.5586296,231.090384 61.5586296,235.149984 L61.5586296,251.380224 L61.5586296,261 L528,261" id="Stroke-8" stroke="#003A5D" stroke-linejoin="round"></path>
                    <path d="M529,261 L649,261" id="Line-3" stroke="#FFBF00" stroke-linecap="square"></path>
                    <path d="M24.7450926,51.526932 L12.9343519,51.526932 C12.9343519,51.526932 0.0175,50.513052 0.0175,64.462572 C0.0175,78.412092 13.6697222,78.134652 13.6697222,78.134652 L24.7450926,78.134652" id="Stroke-10" stroke="#003A5D" stroke-linejoin="round"></path>
                    <path d="M24.7450926,78.150564 L12.9343519,78.150564 C12.9343519,78.150564 0.0175,77.136684 0.0175,91.086204 C0.0175,105.035724 13.6697222,104.758284 13.6697222,104.758284 L24.7450926,104.758284" id="Stroke-12" stroke="#003A5D" stroke-linejoin="round"></path>
                    <path d="M24.7450926,104.774196 L12.9343519,104.774196 C12.9343519,104.774196 0.0175,103.760316 0.0175,117.709836 C0.0175,131.659356 13.6697222,131.381916 13.6697222,131.381916 L24.7450926,131.381916" id="Stroke-14" stroke="#003A5D" stroke-linejoin="round"></path>
                    <path d="M24.7450926,131.397828 L12.9343519,131.397828 C12.9343519,131.397828 0.0175,130.383948 0.0175,144.333468 C0.0175,158.282988 13.6697222,158.005548 13.6697222,158.005548 L24.7450926,158.005548" id="Stroke-16" stroke="#003A5D" stroke-linejoin="round"></path>
                    <path d="M24.7450926,26.124648 L139.306019,26.124648" id="Stroke-18" stroke="#003A5D" stroke-linejoin="round"></path>
                    <path d="M24.7450926,187.918068 L99.4289815,187.918068" id="Stroke-20" stroke="#003A5D" stroke-linejoin="round"></path>
                    <polyline id="Stroke-22" stroke="#003A5D" stroke-linejoin="round" points="24.7450926 118.817148 54.4287963 85.918068 71.0143519 99.106668 121.693796 51.511428"></polyline>
                </g>
            </g>
        </g>
    </g>
</svg>