<?xml version="1.0" encoding="UTF-8"?>
<svg width="69px" height="69px" viewBox="0 0 69 69" version="1.1" xmlns="http://www.w3.org/2000/svg" xmlns:xlink="http://www.w3.org/1999/xlink">
    <!-- Generator: Sketch 50.2 (55047) - http://www.bohemiancoding.com/sketch -->
    <title>bombilloIco</title>
    <desc>Created with Sketch.</desc>
    <defs></defs>
    <g id="Page-1" stroke="none" stroke-width="1" fill="none" fill-rule="evenodd" stroke-linecap="round">
        <g id="HOME" transform="translate(-19.000000, -1541.000000)" stroke="#003A5D">
            <g id="bombilloIco" transform="translate(20.000000, 1542.000000)">
                <g>
                    <path d="M33.7249103,63 L41.8627299,63 L41.8627299,59.3577556 C41.8627299,59.3577556 41.4807372,53.4741299 43.6792566,49.5517128 C45.8777761,45.6292958 50,38.9051522 50,33.0215265 C50,15.5572446 34.2750897,16.0010381 34.2750897,16.0010381 C34.2750897,16.0010381 18,15.5572446 18,33.0215265 C18,38.9051522 22.1222239,45.6292958 24.3207434,49.5517128 C26.5192628,53.4741299 26.1372701,59.3577556 26.1372701,59.3577556 L26.1372701,63 L34.2750897,63" id="Stroke-1" stroke-width="2" fill="#FFBF00" stroke-linejoin="round"></path>
                    <path d="M38,63 C38,65.2090667 36.2096,67 34,67 C31.7909333,67 30,65.2090667 30,63" id="Stroke-3" stroke-width="2" stroke-linejoin="round"></path>
                    <path d="M25,52 L42,52" id="Stroke-5" stroke-width="2" stroke-linejoin="round"></path>
                    <path d="M26,58 L42,58" id="Stroke-7" stroke-width="2" stroke-linejoin="round"></path>
                    <path d="M58,8 L52,14" id="Stroke-12" stroke-width="2" stroke-linejoin="round"></path>
                    <path d="M34,0 L34.296132,8.48011237" id="Stroke-12" stroke-width="2" stroke-linejoin="round"></path>
                    <path d="M67,32 L59,32" id="Stroke-14" stroke-width="2" stroke-linejoin="round"></path>
                    <path d="M58,55 L52,49" id="Stroke-17" stroke-width="2" stroke-linejoin="round"></path>
                    <path d="M10,8 L16,14" id="Stroke-19" stroke-width="2" stroke-linejoin="round"></path>
                    <path d="M0,32 L8,32" id="Stroke-21" stroke-width="2" stroke-linejoin="round"></path>
                    <path d="M10,55 L16,49" id="Stroke-23" stroke-width="2" stroke-linejoin="round"></path>
                    <path d="M34,21 C27.3333333,22.0162823 24,25.5918235 24,31.7266236 C24,40.9288237 29.7194767,45.6815015 29.7194767,49" id="Path-4" stroke-width="2"></path>
                </g>
            </g>
        </g>
    </g>
</svg>