<?xml version="1.0" encoding="UTF-8"?>
<svg width="338px" height="126px" viewBox="0 0 338 126" version="1.1" xmlns="http://www.w3.org/2000/svg" xmlns:xlink="http://www.w3.org/1999/xlink">
    <!-- Generator: Sketch 52.5 (67469) - http://www.bohemiancoding.com/sketch -->
    <title>2</title>
    <desc>Created with Sketch.</desc>
    <g id="Page-1" stroke="none" stroke-width="1" fill="none" fill-rule="evenodd">
        <g id="HOME-MOBILE" transform="translate(-18.000000, -709.000000)">
            <g id="2" transform="translate(18.000000, 709.000000)">
                <polyline id="Stroke-9" stroke="#003A5D" stroke-width="2" fill="#00C4B3" stroke-linecap="round" stroke-linejoin="round" points="51 77 82 77 82 124.520508 51 124.520508"></polyline>
                <polyline id="Stroke-7" stroke="#003A5D" stroke-width="2" stroke-linecap="round" stroke-linejoin="round" points="13 125 13 57 51 57 51 75.7155251 51 125"></polyline>
                <polyline id="Stroke-11" stroke="#003A5D" stroke-width="2" stroke-linecap="round" stroke-linejoin="round" points="26 125 26 108 37 108 37 125"></polyline>
                <path d="M6,125 L337,125" id="Stroke-26" stroke="#003A5D" stroke-width="2" stroke-linecap="round" stroke-linejoin="round"></path>
                <path d="M44.6679688,63 L23.3441992,63 C21.1147331,63.0754687 20,64.1902018 20,66.3441992 C20,68.4981966 20,80.8554688 20,103.416016" id="Path-2" stroke="#003A5D" stroke-width="2" stroke-linecap="round" stroke-linejoin="round"></path>
                <path d="M74.9023438,84 L60.3441992,84 C58.1147331,84.0754687 57,85.1902018 57,87.3441992 C57,89.4981966 57,98.8658854 57,115.447266" id="Path-2-Copy" stroke="#003A5D" stroke-width="2" stroke-linecap="round" stroke-linejoin="round"></path>
                <g id="Group-13" transform="translate(0.000000, 13.000000)">
                    <path d="M14.6858999,15.0632611 L4.73547301,24.8706024 C4.65174404,24.9537419 4.53693386,25 4.41831782,25 L4.41197472,25 C4.29018713,24.9987498 4.17537695,24.9474908 4.09164798,24.8606006 C-1.48584317,19.0189533 -1.34439196,9.99737454 4.41324334,4.32138124 C7.24163331,1.53464356 11.0011909,0 14.9998835,0 C18.9985762,0 22.7587681,1.53464356 25.5865237,4.32138124 C31.3447934,9.99612432 31.4856103,19.0189533 25.9081191,24.8606006 C25.8256588,24.9474908 25.7102143,24.9987498 25.5884267,25 L25.5814493,25 C25.4628332,25 25.3486574,24.9537419 25.2642941,24.8706024 L15.3138672,15.0645113 L15.3170387,15.0632611 C15.1419691,14.891356 14.857798,14.891356 14.6827284,15.0632611 L14.6858999,15.0632611 Z" id="Fill-20" fill="#00C4B3"></path>
                    <path d="M21.5275371,28.4627256 C21.8344186,28.2452247 21.9068145,27.8192319 21.6909083,27.5109984 C21.4730801,27.2021214 21.0489558,27.1306936 20.7433557,27.3481945 C18.9103956,28.6474083 16.7513338,29.3346596 14.4993748,29.3346596 C12.2474158,29.3346596 10.088354,28.6474083 8.25603458,27.3469075 C7.94915311,27.1294066 7.52566949,27.2021214 7.30912265,27.5103549 C7.0925758,27.8179449 7.16561231,28.2439378 7.47185311,28.4614386 C9.5341735,29.9253869 11.9648798,30.7001534 14.4993748,30.7001534 C17.0332291,30.7001534 19.4632947,29.9266739 21.5275371,28.4627256 M14.4993748,33 C10.6310025,33 6.95290949,31.5354082 4.14164455,28.8777791 C4.05323194,28.7934814 4.00133758,28.6763655 4.00005623,28.5521713 C3.99813422,28.4299074 4.04554388,28.3121481 4.13267516,28.2252764 L14.1790392,18.1327206 C14.3565051,17.9557598 14.6428851,17.9557598 14.8197104,18.1327206 L24.8667151,28.2252764 C24.9538464,28.3121481 25.001256,28.4299074 24.9999747,28.5521713 C24.9980527,28.6763655 24.946799,28.7934814 24.857105,28.8777791 C22.0464808,31.5354082 18.3677471,33 14.4993748,33" id="Fill-23" fill="#003A5D"></path>
                </g>
                <g id="Group-13-Copy" transform="translate(39.000000, 0.000000)">
                    <path d="M14.6858999,15.0632611 L4.73547301,24.8706024 C4.65174404,24.9537419 4.53693386,25 4.41831782,25 L4.41197472,25 C4.29018713,24.9987498 4.17537695,24.9474908 4.09164798,24.8606006 C-1.48584317,19.0189533 -1.34439196,9.99737454 4.41324334,4.32138124 C7.24163331,1.53464356 11.0011909,0 14.9998835,0 C18.9985762,0 22.7587681,1.53464356 25.5865237,4.32138124 C31.3447934,9.99612432 31.4856103,19.0189533 25.9081191,24.8606006 C25.8256588,24.9474908 25.7102143,24.9987498 25.5884267,25 L25.5814493,25 C25.4628332,25 25.3486574,24.9537419 25.2642941,24.8706024 L15.3138672,15.0645113 L15.3170387,15.0632611 C15.1419691,14.891356 14.857798,14.891356 14.6827284,15.0632611 L14.6858999,15.0632611 Z" id="Fill-20" fill="#00C4B3"></path>
                    <path d="M21.5275371,28.4627256 C21.8344186,28.2452247 21.9068145,27.8192319 21.6909083,27.5109984 C21.4730801,27.2021214 21.0489558,27.1306936 20.7433557,27.3481945 C18.9103956,28.6474083 16.7513338,29.3346596 14.4993748,29.3346596 C12.2474158,29.3346596 10.088354,28.6474083 8.25603458,27.3469075 C7.94915311,27.1294066 7.52566949,27.2021214 7.30912265,27.5103549 C7.0925758,27.8179449 7.16561231,28.2439378 7.47185311,28.4614386 C9.5341735,29.9253869 11.9648798,30.7001534 14.4993748,30.7001534 C17.0332291,30.7001534 19.4632947,29.9266739 21.5275371,28.4627256 M14.4993748,33 C10.6310025,33 6.95290949,31.5354082 4.14164455,28.8777791 C4.05323194,28.7934814 4.00133758,28.6763655 4.00005623,28.5521713 C3.99813422,28.4299074 4.04554388,28.3121481 4.13267516,28.2252764 L14.1790392,18.1327206 C14.3565051,17.9557598 14.6428851,17.9557598 14.8197104,18.1327206 L24.8667151,28.2252764 C24.9538464,28.3121481 25.001256,28.4299074 24.9999747,28.5521713 C24.9980527,28.6763655 24.946799,28.7934814 24.857105,28.8777791 C22.0464808,31.5354082 18.3677471,33 14.4993748,33" id="Fill-23" fill="#003A5D"></path>
                </g>
                <g id="Group-13-Copy-2" transform="translate(66.000000, 30.000000)">
                    <path d="M14.6858999,15.0632611 L4.73547301,24.8706024 C4.65174404,24.9537419 4.53693386,25 4.41831782,25 L4.41197472,25 C4.29018713,24.9987498 4.17537695,24.9474908 4.09164798,24.8606006 C-1.48584317,19.0189533 -1.34439196,9.99737454 4.41324334,4.32138124 C7.24163331,1.53464356 11.0011909,0 14.9998835,0 C18.9985762,0 22.7587681,1.53464356 25.5865237,4.32138124 C31.3447934,9.99612432 31.4856103,19.0189533 25.9081191,24.8606006 C25.8256588,24.9474908 25.7102143,24.9987498 25.5884267,25 L25.5814493,25 C25.4628332,25 25.3486574,24.9537419 25.2642941,24.8706024 L15.3138672,15.0645113 L15.3170387,15.0632611 C15.1419691,14.891356 14.857798,14.891356 14.6827284,15.0632611 L14.6858999,15.0632611 Z" id="Fill-20" fill="#00C4B3"></path>
                    <path d="M21.5275371,28.4627256 C21.8344186,28.2452247 21.9068145,27.8192319 21.6909083,27.5109984 C21.4730801,27.2021214 21.0489558,27.1306936 20.7433557,27.3481945 C18.9103956,28.6474083 16.7513338,29.3346596 14.4993748,29.3346596 C12.2474158,29.3346596 10.088354,28.6474083 8.25603458,27.3469075 C7.94915311,27.1294066 7.52566949,27.2021214 7.30912265,27.5103549 C7.0925758,27.8179449 7.16561231,28.2439378 7.47185311,28.4614386 C9.5341735,29.9253869 11.9648798,30.7001534 14.4993748,30.7001534 C17.0332291,30.7001534 19.4632947,29.9266739 21.5275371,28.4627256 M14.4993748,33 C10.6310025,33 6.95290949,31.5354082 4.14164455,28.8777791 C4.05323194,28.7934814 4.00133758,28.6763655 4.00005623,28.5521713 C3.99813422,28.4299074 4.04554388,28.3121481 4.13267516,28.2252764 L14.1790392,18.1327206 C14.3565051,17.9557598 14.6428851,17.9557598 14.8197104,18.1327206 L24.8667151,28.2252764 C24.9538464,28.3121481 25.001256,28.4299074 24.9999747,28.5521713 C24.9980527,28.6763655 24.946799,28.7934814 24.857105,28.8777791 C22.0464808,31.5354082 18.3677471,33 14.4993748,33" id="Fill-23" fill="#003A5D"></path>
                </g>
            </g>
        </g>
    </g>
</svg>