<?xml version="1.0" encoding="UTF-8"?>
<svg width="42px" height="59px" viewBox="0 0 42 59" version="1.1" xmlns="http://www.w3.org/2000/svg" xmlns:xlink="http://www.w3.org/1999/xlink">
    <!-- Generator: Sketch 50.2 (55047) - http://www.bohemiancoding.com/sketch -->
    <title>candadoIco</title>
    <desc>Created with Sketch.</desc>
    <defs></defs>
    <g id="Page-1" stroke="none" stroke-width="1" fill="none" fill-rule="evenodd" stroke-linecap="round" stroke-linejoin="round">
        <g id="HOME" transform="translate(-33.000000, -1805.000000)" stroke="#003A5D">
            <g id="candadoIco" transform="translate(34.000000, 1806.000000)">
                <g>
                    <path d="M35.2410959,57 L4.75835616,57 C2.13041096,57 0,54.8573562 0,52.2137702 L0,30.7862298 C0,28.1426438 2.13041096,26 4.75835616,26 L35.2410959,26 C37.8690411,26 40,28.1426438 40,30.7862298 L40,52.2137702 C40,54.8573562 37.8690411,57 35.2410959,57 Z" id="Stroke-1" stroke-width="2" fill="#FFBF00"></path>
                    <path d="M31.986784,26 L31.986784,12.2353894 C31.986784,12.2353894 32.8978561,0 19.591063,0 L19.4089579,0 C6.10161803,0 7.01323698,12.2353894 7.01323698,12.2353894 L7.01323698,26" id="Stroke-3" stroke-width="2"></path>
                    <path d="M26,37.757982 C26,34.5779308 23.3142857,32 20,32 C16.6862857,32 14,34.5779308 14,37.757982 C14,39.9838533 15.3188571,41.9114063 17.2451429,42.8694248 L17.2417143,42.8694248 L17.2417143,47.4385206 C17.2417143,47.4385206 16.6777143,50 19.9102857,50 C23.1428571,50 22.5794286,47.4385206 22.5794286,47.4385206 L22.5794286,42.9511333 C24.6005714,42.0249208 26,40.0507555 26,37.757982 Z" id="Stroke-5" stroke-width="2"></path>
                </g>
            </g>
        </g>
    </g>
</svg>