<?xml version="1.0" encoding="UTF-8"?>
<svg width="68px" height="68px" viewBox="0 0 68 68" version="1.1" xmlns="http://www.w3.org/2000/svg" xmlns:xlink="http://www.w3.org/1999/xlink">
    <!-- Generator: Sketch 52.5 (67469) - http://www.bohemiancoding.com/sketch -->
    <title>Group 8</title>
    <desc>Created with Sketch.</desc>
    <g id="Page-1" stroke="none" stroke-width="1" fill="none" fill-rule="evenodd" stroke-linejoin="round">
        <g id="HOME-DESK" transform="translate(-152.000000, -1422.000000)" stroke="#003A5D" stroke-width="2">
            <g id="BENEFICIOS" transform="translate(146.000000, 800.000000)">
                <g id="Group-10-Copy-2" transform="translate(7.000000, 623.000000)">
                    <g id="Group-8">
                        <path d="M40.9014085,39.5073121 C40.9014085,45.154394 36.3234081,49.7323944 30.6763262,49.7323944 C25.0287046,49.7323944 20.4507042,45.154394 20.4507042,39.5073121 C20.4507042,33.8602302 25.0287046,29.2816901 30.6763262,29.2816901 C36.3234081,29.2816901 40.9014085,33.8602302 40.9014085,39.5073121 Z" id="Stroke-5" fill="#FFBF00" stroke-linecap="round"></path>
                        <g id="Group-7" transform="translate(46.478873, 13.943662)">
                            <path d="M19.5211268,9.76074276 C19.5211268,15.1510894 15.1510894,19.5211268 9.760384,19.5211268 C4.3700374,19.5211268 0,15.1510894 0,9.76074276 C0,4.3700374 4.3700374,0 9.760384,0 C15.1510894,0 19.5211268,4.3700374 19.5211268,9.76074276 Z" id="Stroke-45" fill="#FFBF00"></path>
                            <path d="M19.5211268,10.2253521 C19.5211268,17.3150669 15.1510894,21.3802817 9.760384,21.3802817 C4.3700374,21.3802817 0,17.8831814 0,10.2253521" id="Stroke-47"></path>
                            <path d="M12.9994502,7.20099747 C12.9994502,7.20099747 13.1686649,4.53817486 9.89443041,4.65139833 C6.61985201,4.76462179 6.84581546,6.91793881 6.84581546,6.91793881 C6.84581546,6.91793881 6.39423249,8.56071464 9.89443041,9.18413409 C13.3942844,9.80755354 13.000826,11.5642432 13.000826,11.5642432 C13.000826,11.5642432 13.2814746,13.943662 9.89443041,13.943662 C6.50704225,13.943662 6.50704225,11.2804942 6.50704225,10.9408238" id="Stroke-49"></path>
                            <path d="M10.2253521,2.78873239 L10.2253521,15.8028169" id="Stroke-59"></path>
                        </g>
                        <g id="Group-7-Copy" transform="translate(21.380282, 0.000000)">
                            <path d="M19.5211268,9.76074276 C19.5211268,15.1510894 15.1510894,19.5211268 9.760384,19.5211268 C4.3700374,19.5211268 0,15.1510894 0,9.76074276 C0,4.3700374 4.3700374,0 9.760384,0 C15.1510894,0 19.5211268,4.3700374 19.5211268,9.76074276 Z" id="Stroke-45" fill="#FFBF00"></path>
                            <path d="M19.5211268,10.2253521 C19.5211268,17.3150669 15.1510894,21.3802817 9.760384,21.3802817 C4.3700374,21.3802817 0,17.8831814 0,10.2253521" id="Stroke-47"></path>
                            <path d="M12.9994502,7.20099747 C12.9994502,7.20099747 13.1686649,4.53817486 9.89443041,4.65139833 C6.61985201,4.76462179 6.84581546,6.91793881 6.84581546,6.91793881 C6.84581546,6.91793881 6.39423249,8.56071464 9.89443041,9.18413409 C13.3942844,9.80755354 13.000826,11.5642432 13.000826,11.5642432 C13.000826,11.5642432 13.2814746,13.943662 9.89443041,13.943662 C6.50704225,13.943662 6.50704225,11.2804942 6.50704225,10.9408238" id="Stroke-49"></path>
                            <path d="M10.2253521,2.78873239 L10.2253521,15.8028169" id="Stroke-59"></path>
                        </g>
                        <g id="Group-7-Copy-2" transform="translate(0.000000, 13.943662)">
                            <path d="M19.5211268,9.76074276 C19.5211268,15.1510894 15.1510894,19.5211268 9.760384,19.5211268 C4.3700374,19.5211268 0,15.1510894 0,9.76074276 C0,4.3700374 4.3700374,0 9.760384,0 C15.1510894,0 19.5211268,4.3700374 19.5211268,9.76074276 Z" id="Stroke-45" fill="#FFBF00"></path>
                            <path d="M19.5211268,10.2253521 C19.5211268,17.3150669 15.1510894,21.3802817 9.760384,21.3802817 C4.3700374,21.3802817 0,17.8831814 0,10.2253521" id="Stroke-47"></path>
                            <path d="M12.9994502,7.20099747 C12.9994502,7.20099747 13.1686649,4.53817486 9.89443041,4.65139833 C6.61985201,4.76462179 6.84581546,6.91793881 6.84581546,6.91793881 C6.84581546,6.91793881 6.39423249,8.56071464 9.89443041,9.18413409 C13.3942844,9.80755354 13.000826,11.5642432 13.000826,11.5642432 C13.000826,11.5642432 13.2814746,13.943662 9.89443041,13.943662 C6.50704225,13.943662 6.50704225,11.2804942 6.50704225,10.9408238" id="Stroke-49"></path>
                            <path d="M10.2253521,2.78873239 L10.2253521,15.8028169" id="Stroke-59"></path>
                        </g>
                        <path d="M14.8732394,65.5352113 C14.8732394,56.8073024 21.9482669,49.7323944 30.6763233,49.7323944 C39.4033118,49.7323944 46.4788732,56.8073024 46.4788732,65.5352113" id="Stroke-7" stroke-linecap="round"></path>
                    </g>
                </g>
            </g>
        </g>
    </g>
</svg>