<?xml version="1.0" encoding="UTF-8"?>
<svg width="67px" height="36px" viewBox="0 0 67 36" version="1.1" xmlns="http://www.w3.org/2000/svg" xmlns:xlink="http://www.w3.org/1999/xlink">
    <!-- Generator: Sketch 52.5 (67469) - http://www.bohemiancoding.com/sketch -->
    <title>Group 9</title>
    <desc>Created with Sketch.</desc>
    <g id="Page-1" stroke="none" stroke-width="1" fill="none" fill-rule="evenodd" stroke-linecap="round" stroke-linejoin="round">
        <g id="HOME-DESK" transform="translate(-157.000000, -1340.000000)" stroke="#003A5D" stroke-width="2">
            <g id="BENEFICIOS" transform="translate(146.000000, 800.000000)">
                <g id="Group-10-Copy" transform="translate(12.000000, 541.000000)">
                    <g id="Group-9">
                        <path d="M24.375,9.64869211 C24.375,14.9771655 20.0557997,19.296875 14.7268171,19.296875 C9.3983437,19.296875 5.078125,14.9771655 5.078125,9.64869211 C5.078125,4.3202187 9.3983437,0 14.7268171,0 C20.0557997,0 24.375,4.3202187 24.375,9.64869211 Z" id="Stroke-1" fill="#FFBF00"></path>
                        <path d="M0,33.515625 C0,25.6625976 6.82053225,19.296875 15.2346324,19.296875 C23.6482178,19.296875 30.46875,25.6625976 30.46875,33.515625" id="Stroke-3"></path>
                        <path d="M58.90625,9.64869211 C58.90625,14.9771655 54.5865405,19.296875 49.2580671,19.296875 C43.9290845,19.296875 39.609375,14.9771655 39.609375,9.64869211 C39.609375,4.3202187 43.9290845,0 49.2580671,0 C54.5865405,0 58.90625,4.3202187 58.90625,9.64869211 Z" id="Stroke-5" fill="#FFBF00"></path>
                        <path d="M34.53125,33.515625 C34.53125,25.6625976 41.3517822,19.296875 49.7658824,19.296875 C58.178953,19.296875 65,25.6625976 65,33.515625" id="Stroke-7"></path>
                    </g>
                </g>
            </g>
        </g>
    </g>
</svg>