<?xml version="1.0" encoding="UTF-8"?>
<svg width="23px" height="20px" viewBox="0 0 23 20" version="1.1" xmlns="http://www.w3.org/2000/svg" xmlns:xlink="http://www.w3.org/1999/xlink">
    <!-- Generator: Sketch 52.5 (67469) - http://www.bohemiancoding.com/sketch -->
    <title>fbIco</title>
    <desc>Created with Sketch.</desc>
    <g id="Page-1" stroke="none" stroke-width="1" fill="none" fill-rule="evenodd">
        <g id="PROYECTO-VIDEO-DESK-TABS" transform="translate(-1202.000000, -2419.000000)">
            <g id="Group-3" transform="translate(0.000000, 2354.000000)">
                <g id="fbIco" transform="translate(1202.000000, 65.000000)">
                    <g id="Group" fill-rule="evenodd" transform="translate(6.361702, 1.428571)" fill="#00C4B3">
                        <path d="M9.55048085,2.91852381 L9.32488511,2.91852381 C8.77288511,2.91852381 8.22528936,2.90519048 7.67671489,2.92280952 C6.9240766,2.94947619 6.36571489,3.22852381 6.33928936,4.14280952 C6.32020426,4.81138095 6.31335319,6.34852381 6.31335319,6.34852381 C6.31335319,6.34852381 8.0804383,6.35185714 8.85118298,6.34852381 L9.45945957,6.34852381 C9.31705532,7.41280952 9.18199149,8.43519048 9.0425234,9.46757143 L6.33488511,9.46757143 L6.33488511,17.256619 L3.01505532,17.256619 L3.01505532,9.45471429 L0.299587234,9.45471429 L0.299587234,6.35090476 L3.03120426,6.35090476 L3.03120426,6.11709524 C3.03120426,5.49280952 3.01750213,4.87090476 3.0331617,4.24661905 C3.04441702,3.84947619 3.06154468,3.44471429 3.13299149,3.0542381 C3.3028,2.10661905 3.75154468,1.30614286 4.5678,0.734714286 C5.27737447,0.23852381 6.09265106,0.0342380952 6.95245957,0.0166190476 C7.51718298,0.00328571429 8.0804383,0.0313809524 8.64369362,0.0551904762 C8.95101277,0.069952381 9.25686383,0.111380952 9.55048085,0.13947619 L9.55048085,2.91852381 Z" id="Stroke-4"></path>
                    </g>
                    <rect id="Rectangle" stroke="#00C4B3" x="0.5" y="0.5" width="21.5106383" height="19" rx="5"></rect>
                </g>
            </g>
        </g>
    </g>
</svg>