<?xml version="1.0" encoding="UTF-8"?>
<svg width="67px" height="79px" viewBox="0 0 67 79" version="1.1" xmlns="http://www.w3.org/2000/svg" xmlns:xlink="http://www.w3.org/1999/xlink">
    <!-- Generator: Sketch 50.2 (55047) - http://www.bohemiancoding.com/sketch -->
    <title>manoMonedasIco</title>
    <desc>Created with Sketch.</desc>
    <defs></defs>
    <g id="Page-1" stroke="none" stroke-width="1" fill="none" fill-rule="evenodd" stroke-linejoin="round">
        <g id="HOME" transform="translate(-23.000000, -1678.000000)" stroke="#003A5D">
            <g id="manoMonedasIco" transform="translate(24.000000, 1679.000000)">
                <g>
                    <path d="M0,58.25 L21.2152939,47 L41.2106287,48.6406022 C41.2106287,48.6406022 44.01532,48.8751824 44.01532,51.3362681 C44.01532,53.796989 42.18652,55.4375912 40.7232523,55.4375912 C39.2603642,55.4375912 30.2374495,56.140967 30.2374495,56.140967 L31.7007172,60.8281934 L44.01532,62.2345802 L59.255699,53.3281934 C59.255699,53.3281934 62.1822344,51.6875912 64.1328784,54.6174725 C66.083902,57.546989 64.1328784,59.1875912 64.1328784,59.1875912 L44.1371641,71.6093978 L17.8010026,66.2187956 L3.41353213,77" id="Stroke-3" stroke-width="2"></path>
                    <g id="Group-5" transform="translate(4.000000, 13.000000)" stroke-width="2">
                        <path d="M21,10.5 C21,16.2989856 16.2988992,21 10.500193,21 C4.70110084,21 0,16.2989856 0,10.5 C0,4.70101444 4.70110084,0 10.500193,0 C16.2988992,0 21,4.70101444 21,10.5 Z" id="Stroke-7" fill="#FFBF00"></path>
                        <path d="M21,10 C21,17.6264324 16.2988992,22 10.500193,22 C4.70110084,22 0,18.2379679 0,10" id="Stroke-9"></path>
                        <path d="M12.9838871,6.74652758 C12.9838871,6.74652758 13.165921,3.88197599 9.64400847,4.00377699 C6.12135595,4.12557799 6.36406786,6.44202508 6.36406786,6.44202508 C6.36406786,6.44202508 5.87864405,8.20925363 9.64400847,8.87990182 C13.4090029,9.55055002 12.985737,11.4399509 12.985737,11.4399509 C12.985737,11.4399509 13.2876469,14 9.64400847,14 C6,14 6,11.1350771 6,10.7693027" id="Stroke-11"></path>
                        <path d="M10,2 L10,16" id="Stroke-23"></path>
                    </g>
                    <g id="Group-6" transform="translate(27.000000, 0.000000)" stroke-width="2">
                        <path d="M21,10.5 C21,16.2989856 16.2988992,21 10.500193,21 C4.70110084,21 0,16.2989856 0,10.5 C0,4.70101444 4.70110084,0 10.500193,0 C16.2988992,0 21,4.70101444 21,10.5 Z" id="Stroke-27" fill="#FFBF00"></path>
                        <path d="M21,11 C21,18.6268144 16.2988992,23 10.500193,23 C4.70110084,23 0,19.2379679 0,11" id="Stroke-29"></path>
                        <path d="M12.9838871,6.74679658 C12.9838871,6.74679658 13.165921,3.88197989 9.64400847,4.00377637 C6.12135595,4.12557286 6.36406786,6.44193404 6.36406786,6.44193404 C6.36406786,6.44193404 5.87827406,8.20946838 9.64400847,8.8800917 C13.4090029,9.5503437 12.985737,11.4400459 12.985737,11.4400459 C12.985737,11.4400459 13.2876469,14 9.64400847,14 C6,14 6,11.1351833 6,10.7694225" id="Stroke-31"></path>
                        <path d="M10,2 L10,16" id="Stroke-41"></path>
                    </g>
                    <g id="Group-7" transform="translate(43.000000, 21.000000)" stroke-width="2">
                        <path d="M21,10.500193 C21,16.2988992 16.2988992,21 10.499807,21 C4.70110084,21 0,16.2988992 0,10.500193 C0,4.70110084 4.70110084,0 10.499807,0 C16.2988992,0 21,4.70110084 21,10.500193 Z" id="Stroke-45" fill="#FFBF00"></path>
                        <path d="M21,11 C21,18.6268144 16.2988992,23 10.499807,23 C4.70110084,23 0,19.2379679 0,11" id="Stroke-47"></path>
                        <path d="M13.9842571,7.74652758 C13.9842571,7.74652758 14.166291,4.88197599 10.6440085,5.00377699 C7.12135595,5.12557799 7.36443785,7.44202508 7.36443785,7.44202508 C7.36443785,7.44202508 6.87864405,9.20925363 10.6440085,9.87990182 C14.4090029,10.55055 13.985737,12.4403223 13.985737,12.4403223 C13.985737,12.4403223 14.2876469,15 10.6440085,15 C7,15 7,12.1350771 7,11.7696741" id="Stroke-49"></path>
                        <path d="M11,3 L11,17" id="Stroke-59"></path>
                    </g>
                </g>
            </g>
        </g>
    </g>
</svg>