<?xml version="1.0" encoding="UTF-8"?>
<svg width="20px" height="21px" viewBox="0 0 20 21" version="1.1" xmlns="http://www.w3.org/2000/svg" xmlns:xlink="http://www.w3.org/1999/xlink">
    <!-- Generator: Sketch 52.5 (67469) - http://www.bohemiancoding.com/sketch -->
    <title>shareProjectIco</title>
    <desc>Created with Sketch.</desc>
    <g id="Page-1" stroke="none" stroke-width="1" fill="none" fill-rule="evenodd">
        <g id="PROYECTO-DETALLE-DESK-TABS" transform="translate(-146.000000, -1441.000000)" fill="#003A5D">
            <g id="Group-16" transform="translate(146.000000, 1441.000000)">
                <g id="shareProjectIco">
                    <path d="M16.2026432,19.818314 C14.7665198,19.818314 13.5991189,18.6627907 13.5991189,17.2412791 C13.5991189,15.8197674 14.7665198,14.6642442 16.2026432,14.6642442 C17.6388106,14.6642442 18.8062115,15.8197674 18.8062115,17.2412791 C18.8062115,18.6627907 17.6388106,19.818314 16.2026432,19.818314 M3.79735683,13.0726744 C2.36123348,13.0726744 1.1938326,11.9171512 1.1938326,10.4956395 C1.1938326,9.07412791 2.36123348,7.91860465 3.79735683,7.91860465 C5.23352423,7.91860465 6.40088106,9.07412791 6.40088106,10.4956395 C6.40088106,11.9171512 5.22907489,13.0726744 3.79735683,13.0726744 M16.2026432,1.18168605 C17.6388106,1.18168605 18.8062115,2.3372093 18.8062115,3.75872093 C18.8062115,5.18023256 17.6388106,6.33575581 16.2026432,6.33575581 C14.7665198,6.33575581 13.5991189,5.18023256 13.5991189,3.75872093 C13.5991189,2.3372093 14.7709251,1.18168605 16.2026432,1.18168605 M16.2026432,13.4912791 C14.9824229,13.4912791 13.8943172,14.0668605 13.1982819,14.9563953 L7.37004405,11.7340116 C7.50665198,11.3459302 7.5814978,10.9273256 7.5814978,10.4956395 C7.5814978,10.059593 7.50665198,9.64534884 7.36563877,9.25290698 L13.1894714,6.03488372 C13.8811013,6.92877907 14.9736123,7.50872093 16.1982379,7.50872093 C18.2863877,7.50872093 19.9911894,5.8255814 19.9911894,3.75436047 C19.9911894,1.68313953 18.2907489,0 16.1982379,0 C14.1057269,0 12.4053304,1.68313953 12.4053304,3.75436047 C12.4053304,4.19040698 12.4801762,4.60901163 12.6211454,4.99709302 L6.80180617,8.21511628 C6.11013216,7.31686047 5.0176652,6.74127907 3.79295154,6.74127907 C1.70484581,6.74127907 0,8.4244186 0,10.4956395 C0,12.5668605 1.70484581,14.25 3.79735683,14.25 C5.02202643,14.25 6.11453744,13.6700581 6.81057269,12.7718023 L12.6343612,15.994186 C12.4934361,16.3866279 12.4140969,16.809593 12.4140969,17.2456395 C12.4140969,19.3125 14.1145815,21 16.2070925,21 C18.2996035,21 20,19.3168605 20,17.2456395 C20,15.1744186 18.2951542,13.4912791 16.2026432,13.4912791" id="Fill-1"></path>
                </g>
            </g>
        </g>
    </g>
</svg>