<?xml version="1.0" encoding="UTF-8"?>
<svg width="328px" height="93px" viewBox="0 0 328 93" version="1.1" xmlns="http://www.w3.org/2000/svg" xmlns:xlink="http://www.w3.org/1999/xlink">
    <!-- Generator: Sketch 52.5 (67469) - http://www.bohemiancoding.com/sketch -->
    <title>Group 9</title>
    <desc>Created with Sketch.</desc>
    <g id="Page-1" stroke="none" stroke-width="1" fill="none" fill-rule="evenodd">
        <g id="HOME-MOBILE" transform="translate(-29.000000, -2050.000000)">
            <g id="Group-9" transform="translate(30.000000, 2051.000000)">
                <path d="M44.0513699,38.7290712 L31.8869863,38.7290712 L32.1157534,49 L17.5027397,38.7290712 L5.94794521,38.7290712 C2.66232877,38.7290712 0,36.052213 0,32.7495152 L0,5.97955599 C0,2.67685823 2.66232877,0 5.94794521,0 L44.0513699,0 C47.3363014,0 50,2.67685823 50,5.97955599 L50,32.7495152 C50,36.052213 47.3363014,38.7290712 44.0513699,38.7290712 Z" id="Stroke-1" stroke="#003A5D" stroke-width="2" stroke-linecap="round" stroke-linejoin="round"></path>
                <g id="Group-15" transform="translate(15.000000, 11.000000)">
                    <path d="M9.64689397,10.0404167 L3.11064397,16.5775 C3.05564397,16.6329167 2.98022731,16.66375 2.90231064,16.66375 L2.89814397,16.66375 C2.81814397,16.6629167 2.74272731,16.62875 2.68772731,16.5708333 C-0.976022692,12.6770833 -0.883106025,6.66375 2.89897731,2.88041667 C4.75689397,1.02291667 7.22647731,-3.19744231e-14 9.85314397,-3.19744231e-14 C12.4798106,-3.19744231e-14 14.9498106,1.02291667 16.8073106,2.88041667 C20.5898106,6.66291667 20.6823106,12.6770833 17.0185606,16.5708333 C16.964394,16.62875 16.8885606,16.6629167 16.8085606,16.66375 L16.8039773,16.66375 C16.7260606,16.66375 16.6510606,16.6329167 16.595644,16.5775 L10.059394,10.04125 L10.0614773,10.0404167 C9.94647731,9.92583333 9.75981064,9.92583333 9.64481064,10.0404167 L9.64689397,10.0404167 Z" id="Fill-20" fill="#00C4B3"></path>
                    <path d="M14.4239356,18.402 C14.623519,18.2611667 14.6706023,17.9853333 14.5301856,17.78575 C14.388519,17.58575 14.1126856,17.5395 13.9139356,17.6803333 C12.7218523,18.5215833 11.3176856,18.9665833 9.85310231,18.9665833 C8.38851897,18.9665833 6.98435231,18.5215833 5.79268564,17.6795 C5.59310231,17.5386667 5.31768564,17.58575 5.17685231,17.7853333 C5.03601897,17.9845 5.08351897,18.2603333 5.28268564,18.4011667 C6.62393564,19.3490833 8.20476897,19.85075 9.85310231,19.85075 C11.501019,19.85075 13.0814356,19.3499167 14.4239356,18.402 M9.85310231,21.3399167 C7.33726897,21.3399167 4.94518564,20.3915833 3.11685231,18.67075 C3.05935231,18.6161667 3.02560231,18.5403333 3.02476897,18.4599167 C3.02351897,18.38075 3.05435231,18.3045 3.11101897,18.24825 L9.64476897,11.71325 C9.76018564,11.5986667 9.94643564,11.5986667 10.0614356,11.71325 L16.5956023,18.24825 C16.652269,18.3045 16.6831023,18.38075 16.682269,18.4599167 C16.681019,18.5403333 16.6476856,18.6161667 16.5893523,18.67075 C14.7614356,20.3915833 12.3689356,21.3399167 9.85310231,21.3399167" id="Fill-23" fill="#003A5D"></path>
                </g>
                <path d="M66,58 C66,65.1796063 60.1797599,71 53.0003431,71 C45.8202401,71 40,65.1796063 40,58 C40,50.8203937 45.8202401,45 53.0003431,45 C60.1797599,45 66,50.8203937 66,58 Z" id="Stroke-7" stroke="#003A5D" stroke-width="2" fill="#00C4B3" stroke-linecap="round" stroke-linejoin="round"></path>
                <path d="M33,91 C33,79.9546591 42.177988,71 53.5003463,71 C64.8213194,71 74,79.9546591 74,91 L325.356426,91" id="Stroke-9" stroke="#003A5D" stroke-width="2" stroke-linecap="round" stroke-linejoin="round"></path>
                <path d="M42.0332031,6.73828125 L11.454943,6.73828125 C8.41119898,6.83683698 6.88932697,8.35870899 6.88932697,11.3038973 C6.88932697,14.2490855 6.88932697,20.6522688 6.88932697,30.513447" id="Path-5" stroke="#003A5D" stroke-width="2" stroke-linecap="round" stroke-linejoin="round"></path>
            </g>
        </g>
    </g>
</svg>