<?xml version="1.0" encoding="UTF-8"?>
<svg width="45px" height="45px" viewBox="0 0 45 45" version="1.1" xmlns="http://www.w3.org/2000/svg" xmlns:xlink="http://www.w3.org/1999/xlink">
    <!-- Generator: Sketch 52.5 (67469) - http://www.bohemiancoding.com/sketch -->
    <title>whatsappIco</title>
    <desc>Created with Sketch.</desc>
    <g id="Page-1" stroke="none" stroke-width="1" fill="none" fill-rule="evenodd">
        <g id="HOME-MENU-MOBILE" transform="translate(-71.000000, -573.000000)">
            <g id="whatsappIco" transform="translate(73.000000, 574.000000)">
                <g>
                    <path d="M0,42 C0.929236525,38.5936591 1.78479105,35.3683347 2.70448443,32.1611561 C2.8937939,31.5003796 2.83098665,30.9922942 2.5193917,30.3914876 C-4.2735559,17.2903636 4.32704192,1.53683907 19.041914,0.101320752 C32.1064868,-1.17331861 43.1492434,9.75870553 41.9039733,22.7339146 C40.5137804,37.2194385 25.2163323,45.8097554 11.9493559,39.5359185 C11.3055261,39.2314213 10.7464751,39.1654765 10.0675798,39.3491485 C6.79316953,40.2347573 3.50788453,41.0807549 0,42 Z" id="Stroke-1" stroke="#003A5D" stroke-width="2" fill="#25D266"></path>
                    <path d="M14.8208206,11.0392942 C15.6789845,10.8482873 16.1721822,11.3693379 16.4843215,12.2609283 C16.8289022,13.2452099 17.163619,14.2499645 17.6550631,15.1591033 C18.2604906,16.279272 18.0138918,17.174462 17.2184188,17.9924844 C16.2289547,19.0098378 15.9808215,19.0467343 17.1186832,20.7383488 C18.6508839,23.0162577 20.6460328,24.6970731 23.1047875,25.8350152 C23.8864509,26.1967808 24.4850833,26.2125293 24.9763081,25.4089056 C25.1299666,25.1573795 25.3491656,24.9485993 25.5335119,24.7161963 C26.7509429,23.181392 26.7520389,23.1775673 28.5512239,24.0536342 C29.4402948,24.4864931 30.3102955,24.962323 31.210984,25.3666096 C31.9036527,25.6773051 32.0779159,26.1697834 31.9709468,26.8966894 C31.577923,29.5656111 29.1068932,31.3895131 26.2419629,30.9287568 C23.15608,30.4324539 20.3959268,29.0859567 17.9924103,27.0400008 C15.4409344,24.8682819 13.2783176,22.338397 11.8031086,19.2685633 C10.4894493,16.5352977 10.8132061,13.9136214 12.5849913,11.9574321 C13.3311445,11.1335603 13.564153,11.0320949 14.8208206,11.0392942" id="Fill-3" fill="#003A5D"></path>
                </g>
            </g>
        </g>
    </g>
</svg>